<?xml version="1.0" encoding="UTF-8"?>
<svg id="Capa_1" xmlns="http://www.w3.org/2000/svg" version="1.1" viewBox="0 0 24 24">
  <!-- Generator: Adobe Illustrator 29.0.0, SVG Export Plug-In . SVG Version: 2.1.0 Build 186)  -->
  <defs>
    <style>
      .st0 {
        fill: #fff;
      }
    </style>
  </defs>
  <path class="st0" d="M7.8,2h8.4c3.2,0,5.8,2.6,5.8,5.8v8.4c0,3.2-2.6,5.8-5.8,5.8H7.8c-3.2,0-5.8-2.6-5.8-5.8V7.8c0-3.2,2.6-5.8,5.8-5.8M7.6,4c-2,0-3.6,1.6-3.6,3.6h0v8.8c0,2,1.6,3.6,3.6,3.6h8.8c2,0,3.6-1.6,3.6-3.6h0V7.6c0-2-1.6-3.6-3.6-3.6H7.6M17.2,5.5c.7,0,1.2.6,1.2,1.2s-.6,1.2-1.2,1.2-1.2-.6-1.2-1.2.6-1.2,1.2-1.2M12,7c2.8,0,5,2.2,5,5s-2.2,5-5,5-5-2.2-5-5,2.2-5,5-5M12,9c-1.7,0-3,1.3-3,3s1.3,3,3,3,3-1.3,3-3-1.3-3-3-3Z"/>
</svg>